<svg xmlns="http://www.w3.org/2000/svg" width="3700" height="1177" fill="none"><path fill="#fff" d="M3597.53 404.384v14.896h-23.41V482h-17.47v-62.72h-23.41v-14.896h64.29Zm30.74 0c1.35 2.464 2.88 5.525 4.59 9.184 1.8 3.584 3.62 7.504 5.49 11.76 1.98 4.26 3.88 8.554 5.71 12.88 1.87 4.405 3.62 8.549 5.27 12.432 1.64-3.883 3.39-8.027 5.26-12.432 1.87-4.405 3.73-8.699 5.6-12.88 1.94-4.256 3.77-8.176 5.49-11.76 1.79-3.659 3.36-6.72 4.7-9.184h15.91c.74 5.152 1.42 10.939 2.01 17.36.68 6.347 1.24 12.992 1.68 19.936.53 6.869.97 13.776 1.35 20.72.45 6.944.82 13.477 1.12 19.6h-17.03c-.22-7.541-.52-15.755-.89-24.64-.39-8.97-.95-17.932-1.68-26.88-1.35 3.136-2.84 6.608-4.48 10.416-1.65 3.808-3.29 7.616-4.93 11.424-1.57 3.808-3.1 7.467-4.59 10.976-1.5 3.435-2.77 6.384-3.81 8.848h-12.21a724.957 724.957 0 0 0-3.81-8.848c-1.49-3.509-3.06-7.168-4.7-10.976-1.57-3.822-3.18-7.63-4.82-11.424-1.64-3.808-3.13-7.28-4.48-10.416-.73 8.948-1.29 17.91-1.68 26.88-.37 8.885-.67 17.099-.89 24.64h-17.03c.3-6.123.64-12.656 1.01-19.6.45-6.944.9-13.851 1.35-20.72.52-6.944 1.08-13.589 1.68-19.936.67-6.421 1.38-12.208 2.12-17.36h16.69ZM329.449 140v.135C214.679 318.348 14.517 452.976.737 667.909-11.75 862.652 135.978 1031.02 329.449 1037h.101c193.471-5.98 341.199-174.348 328.713-369.091-13.78-214.933-213.942-349.561-328.713-527.774V140l-.017.034-.016.034a.137.137 0 0 0-.034-.034c-.013-.011-.025-.021-.034-.034ZM1343.03 831.784V969H868.92V259.368h159.74v572.416h314.37Zm310.47 30.72c15.02 0 29.36-.341 43.01-1.024 13.66-.683 24.58-1.707 32.77-3.072V742.696c-6.14-1.365-15.36-2.731-27.65-4.096-12.29-1.365-23.55-2.048-33.79-2.048-14.34 0-27.99 1.024-40.96 3.072-12.29 1.365-23.21 4.437-32.77 9.216-9.56 4.779-17.06 11.264-22.53 19.456-5.46 8.192-8.19 18.432-8.19 30.72 0 23.893 7.85 40.619 23.55 50.176 16.39 8.875 38.57 13.312 66.56 13.312Zm-12.28-446.464c45.05 0 82.6 5.12 112.64 15.36 30.03 10.24 53.93 24.917 71.68 44.032 18.43 19.115 31.4 42.325 38.91 69.632 7.51 27.307 11.26 57.685 11.26 91.136v317.44c-21.84 4.779-52.22 10.24-91.13 16.384-38.92 6.827-86.02 10.24-141.32 10.24-34.81 0-66.56-3.072-95.23-9.216-27.99-6.144-52.22-16.043-72.7-29.696-20.48-14.336-36.18-32.768-47.11-55.296-10.92-22.528-16.38-50.176-16.38-82.944 0-31.403 6.14-58.027 18.43-79.872 12.97-21.845 30.04-39.253 51.2-52.224 21.16-12.971 45.4-22.187 72.71-27.648 27.3-6.144 55.63-9.216 84.99-9.216 19.8 0 37.2 1.024 52.22 3.072 15.7 1.365 28.33 3.413 37.89 6.144v-14.336c0-25.941-7.85-46.763-23.55-62.464-15.7-15.701-43.01-23.552-81.92-23.552-25.94 0-51.54 2.048-76.8 6.144-25.26 3.413-47.11 8.533-65.54 15.36l-19.45-122.88c8.87-2.731 19.79-5.461 32.76-8.192 13.66-3.413 28.33-6.144 44.04-8.192 15.7-2.731 32.08-4.779 49.15-6.144a464.355 464.355 0 0 1 53.25-3.072Zm837.67 14.336c-30.72 103.765-62.81 201.045-96.26 291.84-33.45 90.795-69.97 178.859-109.57 264.192-14.33 30.722-28.67 56.662-43 77.822-14.34 21.85-30.04 39.6-47.11 53.25-17.06 14.34-36.52 24.58-58.37 30.72-21.16 6.83-46.08 10.24-74.75 10.24-23.89 0-46.08-2.39-66.56-7.17-19.8-4.09-36.18-8.87-49.15-14.33l26.62-121.86c15.71 5.46 29.7 9.22 41.99 11.26 12.29 2.05 25.26 3.08 38.91 3.08 27.31 0 48.13-7.51 62.46-22.53 15.02-14.338 27.65-34.477 37.89-60.418-34.81-68.267-69.63-144.725-104.45-229.376-34.81-85.333-67.58-180.907-98.3-286.72h161.79c6.83 26.624 14.68 55.637 23.55 87.04 9.56 30.72 19.46 62.123 29.7 94.208a7120.817 7120.817 0 0 0 30.72 92.16c10.92 30.037 21.16 57.344 30.72 81.92 8.87-24.576 18.09-51.883 27.65-81.92 9.56-30.037 18.77-60.757 27.65-92.16 9.55-32.085 18.43-63.488 26.62-94.208 8.87-31.403 16.73-60.416 23.55-87.04h157.7Zm42.19 273.408c0-47.787 7.17-89.429 21.5-124.928 15.02-36.181 34.48-66.219 58.37-90.112 23.9-23.893 51.2-41.984 81.92-54.272 31.4-12.288 63.49-18.432 96.26-18.432 76.46 0 136.87 23.552 181.25 70.656 44.37 46.421 66.56 115.029 66.56 205.824 0 8.875-.35 18.773-1.03 29.696-.68 10.24-1.36 19.456-2.05 27.648h-346.11c3.42 31.403 18.09 56.32 44.03 74.752 25.95 18.432 60.76 27.648 104.45 27.648 27.99 0 55.3-2.389 81.92-7.168 27.31-5.461 49.5-11.947 66.56-19.456l20.48 123.904c-8.19 4.096-19.11 8.192-32.77 12.288-13.65 4.096-29.01 7.509-46.08 10.24-16.38 3.413-34.13 6.144-53.24 8.192a538.04 538.04 0 0 1-57.35 3.072c-48.47 0-90.79-7.168-126.97-21.504-35.5-14.336-65.2-33.792-89.09-58.368-23.21-25.259-40.62-54.955-52.23-89.088-10.92-34.133-16.38-70.997-16.38-110.592Zm358.4-58.368c-.68-12.971-3.07-25.6-7.17-37.888-3.41-12.288-9.21-23.211-17.41-32.768-7.51-9.557-17.4-17.408-29.69-23.552-11.61-6.144-26.28-9.216-44.03-9.216-17.07 0-31.75 3.072-44.04 9.216-12.28 5.461-22.52 12.971-30.72 22.528-8.19 9.557-14.67 20.821-19.45 33.792-4.1 12.288-7.17 24.917-9.22 37.888h201.73Zm589.81-79.872c-13.66-3.413-29.7-6.827-48.13-10.24-18.43-4.096-38.23-6.144-59.39-6.144-9.56 0-21.16 1.024-34.82 3.072-12.97 1.365-22.87 3.072-29.69 5.12V969h-152.58V459.048c27.31-9.557 59.39-18.432 96.26-26.624 37.54-8.875 79.19-13.312 124.92-13.312 8.2 0 18.09.683 29.7 2.048 11.61.683 23.21 2.048 34.82 4.096a309.958 309.958 0 0 1 34.81 6.144c11.61 2.048 21.51 4.779 29.7 8.192l-25.6 125.952Z"/></svg>