<svg xmlns="http://www.w3.org/2000/svg" width="94" height="30" fill="none"><path fill="#000" d="M33.826 21.027v3.456H21.885V6.609h4.023v14.418h7.918Zm7.82.773c.378 0 .74-.008 1.083-.026.344-.017.619-.043.825-.077v-2.914a7.082 7.082 0 0 0-.696-.103 7.75 7.75 0 0 0-.851-.052 6.61 6.61 0 0 0-1.032.077c-.31.035-.584.112-.825.233-.24.12-.43.283-.568.49-.137.206-.206.464-.206.773 0 .602.198 1.023.593 1.264.413.224.972.335 1.677.335Zm-.31-11.245c1.135 0 2.08.13 2.837.387.757.258 1.359.628 1.806 1.11.464.48.79 1.065.98 1.753.189.688.283 1.453.283 2.296v7.995c-.55.12-1.315.258-2.295.412-.98.172-2.166.258-3.56.258-.876 0-1.676-.077-2.398-.232-.705-.155-1.315-.404-1.83-.748a3.58 3.58 0 0 1-1.187-1.393c-.275-.567-.413-1.263-.413-2.089 0-.79.155-1.461.464-2.011a3.78 3.78 0 0 1 1.29-1.316 5.56 5.56 0 0 1 1.831-.696 9.725 9.725 0 0 1 2.14-.232c.5 0 .938.026 1.316.077.395.035.713.086.954.155v-.361c0-.653-.197-1.178-.593-1.573-.395-.396-1.083-.593-2.063-.593-.653 0-1.298.051-1.934.154a7.781 7.781 0 0 0-1.651.387l-.49-3.095c.223-.069.498-.137.825-.206a9.804 9.804 0 0 1 1.11-.207c.395-.068.807-.12 1.237-.154.446-.052.893-.077 1.341-.078Zm21.099.361a119.098 119.098 0 0 1-2.425 7.35 88.38 88.38 0 0 1-2.76 6.655c-.36.774-.722 1.427-1.083 1.96a5.68 5.68 0 0 1-1.186 1.341c-.43.361-.92.62-1.47.774-.533.172-1.161.258-1.883.258-.602 0-1.16-.06-1.676-.18a6.769 6.769 0 0 1-1.238-.362l.67-3.069a6.56 6.56 0 0 0 1.058.284c.31.051.636.077.98.077.688 0 1.212-.189 1.573-.567.378-.361.696-.868.954-1.522a78.498 78.498 0 0 1-2.63-5.777c-.877-2.15-1.703-4.556-2.477-7.222h4.075c.172.671.37 1.402.594 2.193.24.774.49 1.564.748 2.373.252.775.51 1.549.773 2.32.275.757.533 1.445.774 2.064a57.39 57.39 0 0 0 .697-2.063c.24-.757.472-1.53.696-2.322.24-.808.464-1.598.67-2.372.224-.791.422-1.522.593-2.193h3.972Zm1.062 6.887c0-1.204.18-2.253.542-3.147.378-.911.868-1.668 1.47-2.27a6.094 6.094 0 0 1 2.063-1.366 6.6 6.6 0 0 1 2.424-.465c1.926 0 3.448.594 4.566 1.78 1.117 1.17 1.676 2.897 1.676 5.184 0 .224-.009.473-.026.748-.017.258-.034.49-.052.696h-8.717c.086.791.456 1.419 1.109 1.883.654.464 1.53.696 2.63.696.706 0 1.394-.06 2.064-.18.688-.138 1.247-.301 1.677-.49l.515 3.12a5.311 5.311 0 0 1-.825.31c-.344.103-.73.19-1.16.258-.413.086-.86.155-1.342.206-.48.052-.962.078-1.444.078-1.22 0-2.287-.18-3.198-.542-.894-.361-1.642-.851-2.244-1.47a6.247 6.247 0 0 1-1.315-2.244 9.094 9.094 0 0 1-.413-2.785Zm9.027-1.47a3.598 3.598 0 0 0-.18-.955 2.124 2.124 0 0 0-.44-.825 2.162 2.162 0 0 0-.747-.593c-.292-.155-.662-.232-1.109-.232-.43 0-.8.077-1.11.232a2.16 2.16 0 0 0-.773.567 2.77 2.77 0 0 0-.49.851 6.02 6.02 0 0 0-.232.955h5.081Zm14.855-2.012a20.484 20.484 0 0 0-1.212-.258 6.885 6.885 0 0 0-1.496-.155c-.24 0-.533.026-.877.078a4.348 4.348 0 0 0-.748.129v10.368h-3.843V11.639a21.59 21.59 0 0 1 2.425-.67c.945-.224 1.995-.336 3.146-.336.207 0 .456.017.748.051.293.018.585.052.877.104a7.8 7.8 0 0 1 .877.154c.292.052.542.12.748.207l-.645 3.172Zm3.23-4.06v.376h-.59v1.58h-.44v-1.58h-.589v-.375h1.62Zm.775 0c.034.063.072.14.115.232.045.09.091.19.138.296.05.108.098.216.144.325l.133.313.132-.313c.047-.111.094-.22.141-.325.05-.107.095-.206.139-.296.045-.092.084-.17.118-.231h.4c.02.13.037.275.051.437a22.709 22.709 0 0 1 .076 1.024c.012.175.021.34.029.494h-.429c-.005-.19-.013-.397-.022-.62a17.01 17.01 0 0 0-.043-.678l-.113.262-.124.288a30.057 30.057 0 0 1-.211.5h-.308a60.196 60.196 0 0 0-.214-.5c-.04-.096-.08-.192-.122-.288l-.112-.262a17.08 17.08 0 0 0-.043.677c-.009.224-.017.43-.022.62h-.43l.026-.493.034-.522a11.616 11.616 0 0 1 .096-.94h.42Z"/><path fill="#600FC2" d="M8.298 3.603v.003C5.407 8.095.366 11.486.018 16.899c-.314 4.905 3.407 9.145 8.28 9.296H8.3c4.873-.15 8.594-4.391 8.28-9.296-.348-5.414-5.39-8.804-8.28-13.293v-.003.001h-.001l-.001-.001Z"/></svg>